<?xml version="1.0" encoding="iso-8859-1"?>
<!-- Generator: Adobe Illustrator 18.1.1, SVG Export Plug-In . SVG Version: 6.00 Build 0)  -->
<svg version="1.1" id="Capa_1" xmlns="http://www.w3.org/2000/svg" xmlns:xlink="http://www.w3.org/1999/xlink" x="0px" y="0px"
	 viewBox="0 0 612.002 612.002" style="enable-background:new 0 0 612.002 612.002;" xml:space="preserve">
<g>
	<path d="M590.267,4.223c-42.528-42.53-399.438,250.161-399.438,250.161c-15.321,11.39-26.434,27.948-30.114,44.849L137.068,407.96
		c-2.039,9.417-1.642,18.367,0.988,26.078c84.279-85.028,174.078-166.053,272.734-231.98
		c-54.238,43.476-300.966,272.609-380.738,365.963l-12.542,43.98l44.744-16.632c35.912-45.901,72.894-91.895,111.442-136.683
		c4.126,0.094,8.427-0.306,12.839-1.263l108.725-23.642c16.904-3.681,33.457-14.795,44.85-30.114
		C340.11,403.669,632.801,46.757,590.267,4.223z"/>
</g>
<g>
</g>
<g>
</g>
<g>
</g>
<g>
</g>
<g>
</g>
<g>
</g>
<g>
</g>
<g>
</g>
<g>
</g>
<g>
</g>
<g>
</g>
<g>
</g>
<g>
</g>
<g>
</g>
<g>
</g>
</svg>
